<svg xmlns="http://www.w3.org/2000/svg" viewBox="0 0 32 32" width="32" height="32">
	<style>
		tspan { white-space:pre }
		.shp0 { fill: #7159c1 } 
	</style>
	<path class="shp0" d="M4 0L28 0C30.21 0 32 1.79 32 4L32 28C32 30.21 30.21 32 28 32L4 32C1.79 32 0 30.21 0 28L0 4C0 1.79 1.79 0 4 0Z" />
	<path fill="#ffffff" d="M13.72 19.42C13.72 18.83 13.58 18.27 13.3 17.73C12.98 17.14 12.55 16.84 12.01 16.84C11.46 16.84 11.02 17.14 10.67 17.73C10.42 18.27 10.3 18.83 10.3 19.42C10.3 20.02 10.42 20.56 10.67 21.06C11.02 21.69 11.46 22 12.01 22C12.55 22 12.98 21.69 13.3 21.06C13.58 20.56 13.72 20.02 13.72 19.42ZM27.5 17.03C27.5 14.91 26.89 13.12 25.67 11.69C25.92 10.97 26.05 10.22 26.05 9.44C26.05 8.97 25.98 8.55 25.86 8.17C25.77 7.92 25.59 7.53 25.34 7C24.28 7 23.37 7.12 22.6 7.35C21.84 7.59 21.06 8.02 20.28 8.64C19.09 8.36 17.84 8.22 16.53 8.22C15.06 8.22 13.67 8.37 12.36 8.69C11.58 8.06 10.8 7.62 10.04 7.37C9.27 7.12 8.34 7 7.25 7C7 7.53 6.83 7.92 6.73 8.17C6.64 8.55 6.59 8.97 6.59 9.44C6.59 10.22 6.72 10.98 6.97 11.73C5.66 13.23 5 15 5 17.03C5 18.75 5.31 20.23 5.94 21.48C6.5 22.58 7.39 23.41 8.61 23.97C9.61 24.44 10.86 24.73 12.36 24.86C13.23 24.95 14.5 25 16.16 25L16.77 25C18.39 25 19.62 24.95 20.47 24.86C21.94 24.73 23.16 24.44 24.12 23.97C25.28 23.41 26.13 22.57 26.68 21.46C27.23 20.35 27.5 18.88 27.5 17.03ZM24.5 19.42C24.5 21.27 23.73 22.56 22.2 23.31C21.08 23.88 19.48 24.16 17.42 24.16L15.17 24.16C13.11 24.16 11.52 23.88 10.39 23.31C8.89 22.56 8.12 21.27 8.09 19.42C8.12 18.33 8.45 17.41 9.05 16.66C9.66 15.91 10.5 15.53 11.56 15.53C12.03 15.53 12.73 15.61 13.67 15.77L14.19 15.81C14.84 15.91 15.55 15.95 16.3 15.95C17.05 15.95 17.75 15.91 18.41 15.81L18.97 15.72C19.87 15.59 20.56 15.53 21.03 15.53C22.09 15.53 22.94 15.91 23.56 16.66C24.19 17.41 24.5 18.33 24.5 19.42ZM20.61 16.84C21.17 16.84 21.61 17.14 21.92 17.73C22.2 18.27 22.34 18.83 22.34 19.42C22.34 20.02 22.2 20.56 21.92 21.06C21.61 21.69 21.18 22 20.63 22C20.09 22 19.64 21.69 19.3 21.06C19.02 20.56 18.88 20.02 18.88 19.42C18.88 18.83 19.02 18.27 19.3 17.73C19.64 17.14 20.08 16.84 20.61 16.84Z" />
</svg>